HIERARCHY
ROOT Hips
{
  OFFSET -412.203 72.7424 995.934
  CHANNELS 6 Xposition Yposition Zposition Zrotation Xrotation Yrotation
  JOINT Spine
  {
    OFFSET 0 8 -2.93212e-05
    CHANNELS 6 Xposition Yposition Zposition Zrotation Xrotation Yrotation
    JOINT Spine1
    {
      OFFSET 5.14498e-05 8 -1.18456e-05
      CHANNELS 6 Xposition Yposition Zposition Zrotation Xrotation Yrotation
      JOINT Spine2
      {
        OFFSET -3.25876e-05 8 2.58251e-05
        CHANNELS 6 Xposition Yposition Zposition Zrotation Xrotation Yrotation
        JOINT Spine3
        {
          OFFSET 0 8 0
          CHANNELS 6 Xposition Yposition Zposition Zrotation Xrotation Yrotation
          JOINT Neck
          {
            OFFSET 0 17 4.70538e-05
            CHANNELS 6 Xposition Yposition Zposition Zrotation Xrotation Yrotation
            JOINT Head
            {
              OFFSET -1.69619e-05 10.8 -8.82354e-05
              CHANNELS 6 Xposition Yposition Zposition Zrotation Xrotation Yrotation
              End Site
              {
                OFFSET 0 20.25 0
              }
            }
          }
          JOINT LeftShoulder
          {
            OFFSET 4.99998 17 1.02499e-05
            CHANNELS 6 Xposition Yposition Zposition Zrotation Xrotation Yrotation
            JOINT LeftShoulder2
            {
              OFFSET 6.45 0 0
              CHANNELS 6 Xposition Yposition Zposition Zrotation Xrotation Yrotation
              JOINT LeftArm
              {
                OFFSET 6.45 0 1.55572e-05
                CHANNELS 6 Xposition Yposition Zposition Zrotation Xrotation Yrotation
                JOINT LeftForeArm
                {
                  OFFSET -3.11346e-05 -32.4 -2
                  CHANNELS 6 Xposition Yposition Zposition Zrotation Xrotation Yrotation
                  JOINT LeftHand
                  {
                    OFFSET 7.67672e-05 -25.65 2.00003
                    CHANNELS 6 Xposition Yposition Zposition Zrotation Xrotation Yrotation
                    JOINT LeftHandThumb1
                    {
                      OFFSET -0.499997 -1.49995 2.64994
                      CHANNELS 6 Xposition Yposition Zposition Zrotation Xrotation Yrotation
                      JOINT LeftHandThumb2
                      {
                        OFFSET -4.63468e-05 -3.79999 3.69995
                        CHANNELS 6 Xposition Yposition Zposition Zrotation Xrotation Yrotation
                        JOINT LeftHandThumb3
                        {
                          OFFSET -9.00997e-05 -2.99994 2.70004
                          CHANNELS 6 Xposition Yposition Zposition Zrotation Xrotation Yrotation
                          End Site
                          {
                            OFFSET 3.47806e-05 -2.29999 1.80001
                          }
                        }
                      }
                    }
                    JOINT LeftHandIndex
                    {
                      OFFSET -2.0982e-05 -1.90008 1.60002
                      CHANNELS 6 Xposition Yposition Zposition Zrotation Xrotation Yrotation
                      JOINT LeftHandIndex1
                      {
                        OFFSET 0 -8.3 1.89994
                        CHANNELS 6 Xposition Yposition Zposition Zrotation Xrotation Yrotation
                        JOINT LeftHandIndex2
                        {
                          OFFSET -2.25877e-05 -4.49998 -1.87505e-05
                          CHANNELS 6 Xposition Yposition Zposition Zrotation Xrotation Yrotation
                          JOINT LeftHandIndex3
                          {
                            OFFSET 1.91359e-05 -3.4 0
                            CHANNELS 6 Xposition Yposition Zposition Zrotation Xrotation Yrotation
                            End Site
                            {
                              OFFSET -3.21084e-05 -2.60006 4.36438e-05
                            }
                          }
                        }
                      }
                    }
                    JOINT LeftHandMiddle
                    {
                      OFFSET -0.250005 -2.19999 0.400046
                      CHANNELS 6 Xposition Yposition Zposition Zrotation Xrotation Yrotation
                      JOINT LeftHandMiddle1
                      {
                        OFFSET -3.84882e-05 -8.30004 0.999994
                        CHANNELS 6 Xposition Yposition Zposition Zrotation Xrotation Yrotation
                        JOINT LeftHandMiddle2
                        {
                          OFFSET 0 -4.64999 0
                          CHANNELS 6 Xposition Yposition Zposition Zrotation Xrotation Yrotation
                          JOINT LeftHandMiddle3
                          {
                            OFFSET -1.89357e-05 -3.30001 3.00468e-05
                            CHANNELS 6 Xposition Yposition Zposition Zrotation Xrotation Yrotation
                            End Site
                            {
                              OFFSET 0 -2.69996 0
                            }
                          }
                        }
                      }
                    }
                    JOINT LeftHandRing
                    {
                      OFFSET -0.500048 -2.14999 -0.80001
                      CHANNELS 6 Xposition Yposition Zposition Zrotation Xrotation Yrotation
                      JOINT LeftHandRing1
                      {
                        OFFSET 4.60838e-05 -7.75002 -0.200004
                        CHANNELS 6 Xposition Yposition Zposition Zrotation Xrotation Yrotation
                        JOINT LeftHandRing2
                        {
                          OFFSET 0 -3.79998 8.01764e-05
                          CHANNELS 6 Xposition Yposition Zposition Zrotation Xrotation Yrotation
                          JOINT LeftHandRing3
                          {
                            OFFSET 3.32143e-05 -3.39991 5.01351e-05
                            CHANNELS 6 Xposition Yposition Zposition Zrotation Xrotation Yrotation
                            End Site
                            {
                              OFFSET 1.85864e-05 -2.60004 -4.63853e-05
                            }
                          }
                        }
                      }
                    }
                    JOINT LeftHandPinky
                    {
                      OFFSET -0.749966 -1.75 -1.85
                      CHANNELS 6 Xposition Yposition Zposition Zrotation Xrotation Yrotation
                      JOINT LeftHandPinky1
                      {
                        OFFSET 3.45035e-05 -7.15003 -1.00001
                        CHANNELS 6 Xposition Yposition Zposition Zrotation Xrotation Yrotation
                        JOINT LeftHandPinky2
                        {
                          OFFSET -3.21533e-05 -2.99995 -6.84311e-05
                          CHANNELS 6 Xposition Yposition Zposition Zrotation Xrotation Yrotation
                          JOINT LeftHandPinky3
                          {
                            OFFSET -3.30434e-05 -2.35003 5.85547e-05
                            CHANNELS 6 Xposition Yposition Zposition Zrotation Xrotation Yrotation
                            End Site
                            {
                              OFFSET 1.36213e-05 -2.10006 2.38115e-05
                            }
                          }
                        }
                      }
                    }
                  }
                }
              }
            }
          }
          JOINT RightShoulder
          {
            OFFSET -5.00001 17 2.81745e-05
            CHANNELS 6 Xposition Yposition Zposition Zrotation Xrotation Yrotation
            JOINT RightShoulder2
            {
              OFFSET -6.45 0 0
              CHANNELS 6 Xposition Yposition Zposition Zrotation Xrotation Yrotation
              JOINT RightArm
              {
                OFFSET -6.44991 0 0
                CHANNELS 6 Xposition Yposition Zposition Zrotation Xrotation Yrotation
                JOINT RightForeArm
                {
                  OFFSET 0 -32.4 -2.00003
                  CHANNELS 6 Xposition Yposition Zposition Zrotation Xrotation Yrotation
                  JOINT RightHand
                  {
                    OFFSET 0 -25.6499 2.00008
                    CHANNELS 6 Xposition Yposition Zposition Zrotation Xrotation Yrotation
                    JOINT RightHandThumb1
                    {
                      OFFSET 0.499992 -1.50004 2.65004
                      CHANNELS 6 Xposition Yposition Zposition Zrotation Xrotation Yrotation
                      JOINT RightHandThumb2
                      {
                        OFFSET 0 -3.79999 3.70005
                        CHANNELS 6 Xposition Yposition Zposition Zrotation Xrotation Yrotation
                        JOINT RightHandThumb3
                        {
                          OFFSET 0 -3 2.7
                          CHANNELS 6 Xposition Yposition Zposition Zrotation Xrotation Yrotation
                          End Site
                          {
                            OFFSET -8.04717e-05 -2.30001 1.79998
                          }
                        }
                      }
                    }
                    JOINT RightHandIndex
                    {
                      OFFSET -1.17322e-05 -1.89996 1.6
                      CHANNELS 6 Xposition Yposition Zposition Zrotation Xrotation Yrotation
                      JOINT RightHandIndex1
                      {
                        OFFSET 4.12394e-05 -8.3 1.90003
                        CHANNELS 6 Xposition Yposition Zposition Zrotation Xrotation Yrotation
                        JOINT RightHandIndex2
                        {
                          OFFSET -4.76372e-05 -4.50003 1.87514e-05
                          CHANNELS 6 Xposition Yposition Zposition Zrotation Xrotation Yrotation
                          JOINT RightHandIndex3
                          {
                            OFFSET -1.71753e-05 -3.40001 -3.00731e-05
                            CHANNELS 6 Xposition Yposition Zposition Zrotation Xrotation Yrotation
                            End Site
                            {
                              OFFSET -3.02007e-05 -2.59999 7.4467e-05
                            }
                          }
                        }
                      }
                    }
                    JOINT RightHandMiddle
                    {
                      OFFSET 0.250065 -2.2 0.399966
                      CHANNELS 6 Xposition Yposition Zposition Zrotation Xrotation Yrotation
                      JOINT RightHandMiddle1
                      {
                        OFFSET 0 -8.30005 1.00008
                        CHANNELS 6 Xposition Yposition Zposition Zrotation Xrotation Yrotation
                        JOINT RightHandMiddle2
                        {
                          OFFSET 5.81098e-05 -4.64992 -6.03012e-05
                          CHANNELS 6 Xposition Yposition Zposition Zrotation Xrotation Yrotation
                          JOINT RightHandMiddle3
                          {
                            OFFSET -3.36218e-05 -3.29998 1.69903e-05
                            CHANNELS 6 Xposition Yposition Zposition Zrotation Xrotation Yrotation
                            End Site
                            {
                              OFFSET -4.76313e-05 -2.69996 -5.46112e-05
                            }
                          }
                        }
                      }
                    }
                    JOINT RightHandRing
                    {
                      OFFSET 0.499922 -2.14998 -0.800006
                      CHANNELS 6 Xposition Yposition Zposition Zrotation Xrotation Yrotation
                      JOINT RightHandRing1
                      {
                        OFFSET 0 -7.7499 -0.199973
                        CHANNELS 6 Xposition Yposition Zposition Zrotation Xrotation Yrotation
                        JOINT RightHandRing2
                        {
                          OFFSET 2.9721e-05 -3.80002 3.77074e-05
                          CHANNELS 6 Xposition Yposition Zposition Zrotation Xrotation Yrotation
                          JOINT RightHandRing3
                          {
                            OFFSET -2.63005e-05 -3.40004 -6.14483e-05
                            CHANNELS 6 Xposition Yposition Zposition Zrotation Xrotation Yrotation
                            End Site
                            {
                              OFFSET 2.27711e-05 -2.60005 0.000100748
                            }
                          }
                        }
                      }
                    }
                    JOINT RightHandPinky
                    {
                      OFFSET 0.749979 -1.74996 -1.85003
                      CHANNELS 6 Xposition Yposition Zposition Zrotation Xrotation Yrotation
                      JOINT RightHandPinky1
                      {
                        OFFSET 6.14799e-05 -7.15005 -1.00001
                        CHANNELS 6 Xposition Yposition Zposition Zrotation Xrotation Yrotation
                        JOINT RightHandPinky2
                        {
                          OFFSET 4.88408e-05 -3.00003 0.000101661
                          CHANNELS 6 Xposition Yposition Zposition Zrotation Xrotation Yrotation
                          JOINT RightHandPinky3
                          {
                            OFFSET 1.75206e-05 -2.34996 -7.01194e-05
                            CHANNELS 6 Xposition Yposition Zposition Zrotation Xrotation Yrotation
                            End Site
                            {
                              OFFSET 3.16279e-05 -2.09999 -1.45801e-05
                            }
                          }
                        }
                      }
                    }
                  }
                }
              }
            }
          }
        }
      }
    }
  }
  JOINT LeftUpLeg
  {
    OFFSET 7.99999 0 0
    CHANNELS 6 Xposition Yposition Zposition Zrotation Xrotation Yrotation
    JOINT LeftLeg
    {
      OFFSET 0 -45 -1.00003
      CHANNELS 6 Xposition Yposition Zposition Zrotation Xrotation Yrotation
      JOINT LeftFoot
      {
        OFFSET -6.67953e-05 -41 -1.99999
        CHANNELS 6 Xposition Yposition Zposition Zrotation Xrotation Yrotation
        JOINT LeftToeBase
        {
          OFFSET -2.74349e-05 -7.5 12.4999
          CHANNELS 6 Xposition Yposition Zposition Zrotation Xrotation Yrotation
          JOINT LeftFootToe
          {
            OFFSET 0 0 4
            CHANNELS 6 Xposition Yposition Zposition Zrotation Xrotation Yrotation
            End Site
            {
              OFFSET 0 0 0
            }
          }
        }
      }
    }
  }
  JOINT RightUpLeg
  {
    OFFSET -7.99999 0 0
    CHANNELS 6 Xposition Yposition Zposition Zrotation Xrotation Yrotation
    JOINT RightLeg
    {
      OFFSET -3.93404e-05 -45 -1.00008
      CHANNELS 6 Xposition Yposition Zposition Zrotation Xrotation Yrotation
      JOINT RightFoot
      {
        OFFSET -6.80785e-05 -41 -1.99991
        CHANNELS 6 Xposition Yposition Zposition Zrotation Xrotation Yrotation
        JOINT RightToeBase
        {
          OFFSET 4.38521e-05 -7.50002 12.4999
          CHANNELS 6 Xposition Yposition Zposition Zrotation Xrotation Yrotation
          JOINT RightFootToe
          {
            OFFSET 0 0 4
            CHANNELS 6 Xposition Yposition Zposition Zrotation Xrotation Yrotation
            End Site
            {
              OFFSET 0 0 0
            }
          }
        }
      }
    }
  }
}
MOTION
Frames:	3
Frame Time:	0.0111111
-403.673 72.52 996.751 -7.02922 4.95708 -167.969 0 8 0 6.76582 10.919 -8.71132 0 8 1.13687e-13 2.30915 6.10399 -4.7662 0 8 0 1.09084 3.07967 -2.35179 -5.68434e-14 8 -1.13687e-13 1.08928 3.06784 -2.35365 5.68434e-14 17 1.13687e-13 4.49052 -1.01141 -4.74132 2.84217e-14 10.8 0 10.3246 -2.95958 -10.9441 5 17 0 2.65342 -1.11098 -1.51786 6.45 5.68434e-14 0 -1.53464 0.7574 1.06035 6.45 0 0 55.3248 15.7455 39.0399 0 -32.4 -2 -44.8523 -55.229 -52.4763 2.84217e-14 -25.65 2 -12.0936 -48.4325 -8.70205 -0.5 -1.5 2.65 37.1963 2.9737 -93.8583 0 -3.8 3.7 -0.350356 4.28003 0.192847 0 -3 2.7 -0.0762556 21.94 0.0840752 -2.84217e-14 -1.9 1.6 -2.98188e-06 1.37133e-05 1.48257e-05 5.68434e-14 -8.3 1.9 -1.0203 -2.79921 -0.0512609 0 -4.5 0 -2.26394 0.00874907 -0.00739591 2.84217e-14 -3.4 0 1.41409e-05 0.00486148 -0.0224458 -0.25 -2.2 0.4 -2.98188e-06 1.37133e-05 1.48257e-05 -2.84217e-14 -8.3 1 -2.17589 3.30044 0.243811 5.68434e-14 -4.65 0 -3.32197 0.00428065 0.00164199 -5.68434e-14 -3.3 5.68434e-14 -1.49182e-05 0.0038787 0.00563844 -0.5 -2.15 -0.8 -2.98188e-06 1.37133e-05 1.48257e-05 -2.84217e-14 -7.75 -0.2 -4.27741 12.7813 1.06317 5.68434e-14 -3.8 0 -1.79085 -9.5181e-05 0.00073467 2.84217e-14 -3.4 0 -7.67678e-05 4.51386e-06 0.018441 -0.75 -1.75 -1.85 -2.98188e-06 1.37133e-05 1.48257e-05 -8.52651e-14 -7.15 -1 -5.70881 19.5846 1.80214 2.84217e-14 -3 0 -12.6388 -0.000332821 0.0174183 -5.68434e-14 -2.35 1.13687e-13 -2.12918e-05 -2.08837e-05 0.0401625 -5 17 1.13687e-13 12.6298 -0.885352 1.96926 -6.45 0 0 -2.09222 0.79416 -1.35561 -6.45 5.68434e-14 0 -46.1486 -22.6861 -54.4516 5.68434e-14 -32.4 -2 -22.5683 -40.8157 -41.1064 0 -25.65 2 -4.62508 4.00959 -18.4194 0.5 -1.5 2.65 -19.3774 15.4741 10.781 1.13687e-13 -3.8 3.7 0.302841 17.6983 0.032835 0 -3 2.7 -0.262232 56.4893 -0.199008 0 -1.9 1.6 -5.44836e-05 2.70974e-05 -3.07464e-05 1.13687e-13 -8.3 1.9 1.93346 -0.147215 -0.113735 1.13687e-13 -4.5 0 77.5084 0.0156375 -0.00264195 -1.13687e-13 -3.4 0 58.9958 0.00904417 -0.020494 0.25 -2.2 0.4 -5.44836e-05 2.70974e-05 -3.07464e-05 -1.13687e-13 -8.3 1 2.48903 4.20988 -0.340325 1.13687e-13 -4.65 -8.52651e-14 18.5001 -0.030748 -0.119348 0 -3.3 -2.84217e-14 13.4503 -0.0303836 -0.0672355 0.5 -2.15 -0.8 -5.44836e-05 2.70974e-05 -3.07464e-05 1.13687e-13 -7.75 -0.2 4.85027 15.3213 -1.29368 0 -3.8 -2.84217e-14 5.19051 -0.0814949 0.0194195 -1.13687e-13 -3.4 5.68434e-14 3.75179 -0.0527903 0.030658 0.75 -1.75 -1.85 -5.44836e-05 2.70974e-05 -3.07464e-05 0 -7.15 -1 6.79615 21.3267 -2.24645 0 -3 -2.84217e-14 2.01342 -0.0533566 -0.0154413 1.13687e-13 -2.35 2.84217e-14 1.61137 -0.042529 -0.00785528 8 0 0 23.8497 -52.1669 7.90998 -1.13687e-13 -45 -1 4.50429 48.2353 -6.24103 0 -41 -2 -26.3221 10.2021 15.4586 0 -7.5 12.5 4.26166e-06 0.0361534 -6.35928e-06 0 0 4 -3.05262 0.595055 -19.656 -8 1.42109e-14 0 18.4378 -58.6045 15.4817 -1.13687e-13 -45 -1 -7.43432 83.7924 15.2123 0 -41 -2 -10.5559 10.4065 -0.215249 0 -7.5 12.5 -1.61229e-06 -24.9636 -4.09075e-05 1.13687e-13 0 4 12.9962 24.8483 -9.64344 
-403.697 72.4998 997.024 -7.16854 5.15112 -168.167 0 8 1.13687e-13 6.77179 10.9489 -8.82083 0 8 1.13687e-13 2.31399 6.09673 -4.72788 0 8 1.13687e-13 1.09386 3.07587 -2.33258 0 8 0 1.09174 3.06736 -2.32781 5.68434e-14 17 0 4.48647 -0.985249 -4.69609 0 10.8 0 10.3159 -2.89285 -10.8414 5 17 1.13687e-13 2.78285 -0.983838 -1.49156 6.45 5.68434e-14 0 -1.5357 0.786493 1.03002 6.45 0 0 54.956 16.0269 39.0189 0 -32.4 -2 -44.8551 -55.5068 -52.7316 0 -25.65 2 -12.081 -48.2218 -8.57924 -0.5 -1.5 2.65 36.7686 3.03194 -93.9708 -5.68434e-14 -3.8 3.7 -0.351711 4.68138 0.192953 -5.68434e-14 -3 2.7 -0.0719174 21.7285 0.083951 -2.84217e-14 -1.9 1.6 -2.98188e-06 1.37133e-05 1.48257e-05 0 -8.3 1.9 -1.07168 -3.38036 -0.0576486 2.84217e-14 -4.5 -5.68434e-14 -2.26394 0.00874907 -0.00739591 -2.84217e-14 -3.4 0 1.41409e-05 0.00486148 -0.0224458 -0.25 -2.2 0.4 -2.98188e-06 1.37133e-05 1.48257e-05 0 -8.3 1 -2.10882 2.6722 0.215674 2.84217e-14 -4.65 5.68434e-14 -3.32197 0.00428065 0.00164199 -2.84217e-14 -3.3 0 -1.49182e-05 0.0038787 0.00563844 -0.5 -2.15 -0.8 -2.98188e-06 1.37133e-05 1.48257e-05 -2.84217e-14 -7.75 -0.2 -4.01699 12.1908 0.973355 -2.84217e-14 -3.8 0 -1.79085 -9.5181e-05 0.00073467 2.84217e-14 -3.4 1.13687e-13 -7.67678e-05 4.51386e-06 0.018441 -0.75 -1.75 -1.85 -2.98188e-06 1.37133e-05 1.48257e-05 -5.68434e-14 -7.15 -1 -5.2928 18.9407 1.64131 0 -3 0 -12.6388 -0.000332821 0.0174183 0 -2.35 0 -2.12918e-05 -2.08837e-05 0.0401625 -5 17 0 12.6726 -0.828274 1.95727 -6.45 0 1.13687e-13 -2.08061 0.794402 -1.3424 -6.45 5.68434e-14 0 -45.7579 -22.5287 -54.2197 1.13687e-13 -32.4 -2 -23.004 -42.3201 -41.5668 -1.13687e-13 -25.65 2 -3.40923 3.55301 -18.2914 0.5 -1.5 2.65 -22.2483 15.5513 11.508 0 -3.8 3.7 0.302209 17.9489 0.0344429 -1.13687e-13 -3 2.7 -0.262232 56.4893 -0.199008 -1.13687e-13 -1.9 1.6 -5.44836e-05 2.70974e-05 -3.07464e-05 -1.13687e-13 -8.3 1.9 1.44068 -0.935508 -0.114677 0 -4.5 -5.68434e-14 77.7139 0.00314222 -0.00941142 -5.68434e-14 -3.4 -2.84217e-14 59.2812 -0.00812301 -0.0114716 0.25 -2.2 0.4 -5.44836e-05 2.70974e-05 -3.07464e-05 0 -8.3 1 2.48715 4.32435 -0.402194 0 -4.65 0 9.40928 0.00222982 -0.174276 0 -3.3 -2.84217e-14 6.10937 -0.00943192 -0.125488 0.5 -2.15 -0.8 -5.44836e-05 2.70974e-05 -3.07464e-05 0 -7.75 -0.2 5.11079 15.6686 -1.41451 0 -3.8 2.84217e-14 1.30811 -0.0208007 0.00487433 0 -3.4 0 0.932953 -0.0135234 0.00813582 0.75 -1.75 -1.85 -5.44836e-05 2.70974e-05 -3.07464e-05 1.13687e-13 -7.15 -1 6.86805 21.416 -2.27238 -1.13687e-13 -3 -2.84217e-14 0.502041 -0.0132445 -0.00385254 0 -2.35 -2.84217e-14 0.40072 -0.0105749 -0.00199177 8 0 1.13687e-13 23.6793 -51.9691 7.79784 0 -45 -1 4.45379 48.4011 -6.19511 1.13687e-13 -41 -2 -26.3573 10.1085 15.9705 0 -7.5 12.5 4.26166e-06 0.0361534 -6.35928e-06 -1.13687e-13 0 4 -3.04058 0.465346 -19.6281 -8 1.42109e-14 1.13687e-13 18.6229 -58.3857 15.7464 0 -45 -1 -7.41282 83.5913 15.2064 0 -41 -2 -10.3167 10.3755 -1.21541 0 -7.5 12.5 -1.50612e-06 -24.8287 -4.08628e-05 1.13687e-13 0 4 12.6393 24.7023 -9.57603 
-403.697 72.499 997.352 -7.28614 5.37341 -168.363 -1.13687e-13 8 1.13687e-13 6.80646 10.9997 -8.9406 5.68434e-14 8 -1.13687e-13 2.32292 6.09283 -4.6938 0 8 1.13687e-13 1.09881 3.07382 -2.31543 5.68434e-14 8 0 1.09632 3.06727 -2.31036 -5.68434e-14 17 0 4.48046 -0.953383 -4.64542 -2.84217e-14 10.8 0 10.3079 -2.8118 -10.7265 5 17 -1.13687e-13 2.92009 -0.853567 -1.46393 6.45 0 0 -1.52786 0.81722 1.00191 6.45 0 0 54.5592 16.341 39.0859 0 -32.4 -2 -44.9639 -55.7273 -53.0473 2.84217e-14 -25.65 2 -12.1021 -48.0019 -8.47384 -0.5 -1.5 2.65 36.3973 3.08648 -94.1549 -5.68434e-14 -3.8 3.7 -0.352922 5.03952 0.193056 0 -3 2.7 -0.0698361 21.7193 0.0839456 -5.68434e-14 -1.9 1.6 -2.98188e-06 1.37133e-05 1.48257e-05 5.68434e-14 -8.3 1.9 -1.12072 -3.93026 -0.0664755 2.84217e-14 -4.5 -2.84217e-14 -2.26394 0.00874907 -0.00739591 -5.68434e-14 -3.4 5.68434e-14 1.41409e-05 0.00486148 -0.0224458 -0.25 -2.2 0.4 -2.98188e-06 1.37133e-05 1.48257e-05 5.68434e-14 -8.3 1 -2.04308 2.05917 0.187348 -2.84217e-14 -4.65 -5.68434e-14 -3.32197 0.00428065 0.00164199 0 -3.3 -5.68434e-14 -1.49182e-05 0.0038787 0.00563844 -0.5 -2.15 -0.8 -2.98188e-06 1.37133e-05 1.48257e-05 2.84217e-14 -7.75 -0.2 -3.76326 11.5894 0.887376 -2.84217e-14 -3.8 0 -1.79085 -9.5181e-05 0.00073467 0 -3.4 -1.13687e-13 -7.67678e-05 4.51386e-06 0.018441 -0.75 -1.75 -1.85 -2.98188e-06 1.37133e-05 1.48257e-05 -8.52651e-14 -7.15 -1 -4.8897 18.2759 1.48896 5.68434e-14 -3 0 -12.6388 -0.000332821 0.0174183 0 -2.35 1.13687e-13 -2.12918e-05 -2.08837e-05 0.0401625 -5 17 0 12.7036 -0.771073 1.92534 -6.45 0 1.13687e-13 -2.06596 0.79472 -1.34069 -6.45 -5.68434e-14 0 -45.4098 -22.4568 -53.9084 0 -32.4 -2 -23.3604 -43.7284 -42.074 0 -25.65 2 -2.06866 3.1037 -18.3928 0.5 -1.5 2.65 -25.3004 15.2807 12.4293 0 -3.8 3.7 0.301489 18.2915 0.0361116 0 -3 2.7 -0.262232 56.4893 -0.199008 0 -1.9 1.6 -5.44836e-05 2.70974e-05 -3.07464e-05 -1.13687e-13 -8.3 1.9 1.07652 -1.78769 -0.110457 0 -4.5 2.84217e-14 77.67 -0.00589587 -0.0177595 -5.68434e-14 -3.4 5.68434e-14 59.2218 -0.0246663 -0.00588817 0.25 -2.2 0.4 -5.44836e-05 2.70974e-05 -3.07464e-05 1.13687e-13 -8.3 1 2.48034 4.15556 -0.425772 1.13687e-13 -4.65 -2.84217e-14 4.00206 0.0167522 -0.170076 0 -3.3 -5.68434e-14 1.77454 0.00465004 -0.130924 0.5 -2.15 -0.8 -5.44836e-05 2.70974e-05 -3.07464e-05 0 -7.75 -0.2 5.44928 15.9433 -1.51313 0 -3.8 -2.84217e-14 -0.660416 0.0121471 -0.00249905 1.13687e-13 -3.4 0 -0.496304 0.00798581 -0.00534038 0.75 -1.75 -1.85 -5.44836e-05 2.70974e-05 -3.07464e-05 0 -7.15 -1 7.2425 21.6982 -2.37666 -1.13687e-13 -3 0 -0.264216 0.00709483 0.00202769 -1.13687e-13 -2.35 -2.84217e-14 -0.213136 0.00562814 0.000981003 8 1.42109e-14 1.13687e-13 23.5403 -51.7555 7.69273 0 -45 -1 4.42214 48.5635 -6.18084 0 -41 -2 -26.3879 10.0053 16.5178 0 -7.5 12.5 4.26166e-06 0.0361534 -6.35928e-06 0 0 4 -3.03927 0.363791 -19.6901 -8 0 1.13687e-13 18.7631 -58.1436 15.9238 0 -45 -1 -7.48675 83.3061 15.3194 1.13687e-13 -41 -2 -10.1052 10.3738 -2.10028 1.13687e-13 -7.5 12.5 -1.3134e-06 -24.5829 -4.07822e-05 0 -8.88178e-16 4 12.2805 24.4236 -9.45333 
